HIERARCHY
ROOT Hips
{
	OFFSET -3.958830 18.904000 13.208200
	CHANNELS 6 Xposition Yposition Zposition Zrotation Yrotation Xrotation 
	JOINT LHipJoint
	{
		OFFSET 0.000000 0.000000 0.000000
		CHANNELS 3 Zrotation Yrotation Xrotation
		JOINT LeftUpLeg
		{
			OFFSET 1.800000 -1.400000 0.085000
			CHANNELS 3 Zrotation Yrotation Xrotation
			JOINT LeftLeg
			{
				OFFSET 2.215000 -6.000000 0.000000
				CHANNELS 3 Zrotation Yrotation Xrotation
				JOINT LeftFoot
				{
					OFFSET 2.500000 -6.900000 0.000000
					CHANNELS 3 Zrotation Yrotation Xrotation
					JOINT LeftToeBase
					{
						OFFSET 0.200000 -0.500000 1.950000
						CHANNELS 3 Zrotation Yrotation Xrotation
						End Site
						{
							OFFSET 0.000000 0.000000 0.000000
						}
					}
				}
			}
		}
	}
	JOINT RHipJoint
	{
		OFFSET 0.000000 0.000000 0.000000
		CHANNELS 3 Zrotation Yrotation Xrotation
		JOINT RightUpLeg
		{
			OFFSET -1.800000 -1.400000 0.085000
			CHANNELS 3 Zrotation Yrotation Xrotation
			JOINT RightLeg
			{
				OFFSET -2.215000 -6.000000 0.000000
				CHANNELS 3 Zrotation Yrotation Xrotation
				JOINT RightFoot
				{
					OFFSET -2.500000 -6.900000 0.000000
					CHANNELS 3 Zrotation Yrotation Xrotation
					JOINT RightToeBase
					{
						OFFSET -0.200000 -0.500000 1.950000
						CHANNELS 3 Zrotation Yrotation Xrotation
						End Site
						{
							OFFSET 0.000000 0.000000 0.000000
						}
					}
				}
			}
		}
	}
	JOINT LowerBack
	{
		OFFSET 0.000000 0.000000 0.000000
		CHANNELS 3 Zrotation Yrotation Xrotation
		JOINT Spine
		{
			OFFSET -0.087000 1.940000 -0.288900
			CHANNELS 3 Zrotation Yrotation Xrotation
			JOINT Spine1
			{
				OFFSET 0.000000 1.950000 0.060000
				CHANNELS 3 Zrotation Yrotation Xrotation
				JOINT Neck
				{
					OFFSET 0.000000 0.000000 0.000000
					CHANNELS 3 Zrotation Yrotation Xrotation
					JOINT Neck1
					{
						OFFSET 0.000000 1.600000 0.340000
						CHANNELS 3 Zrotation Yrotation Xrotation
						JOINT Head
						{
							OFFSET 0.000000 1.667000 -0.240000
							CHANNELS 3 Zrotation Yrotation Xrotation
							End Site
							{
								OFFSET 0.000000 0.000000 0.000000
							}
						}
					}
				}
				JOINT LeftShoulder
				{
					OFFSET 0.000000 0.000000 0.000000
					CHANNELS 3 Zrotation Yrotation Xrotation
					JOINT LeftArm
					{
						OFFSET 2.700000 1.550000 -0.730000
						CHANNELS 3 Zrotation Yrotation Xrotation
						JOINT LeftForeArm
						{
							OFFSET 5.450000 0.000000 0.000000
							CHANNELS 3 Zrotation Yrotation Xrotation
							JOINT LeftHand
							{
								OFFSET 3.450000 0.000000 0.000000
								CHANNELS 3 Zrotation Yrotation Xrotation
								JOINT LeftHandIndex1
								{
									OFFSET 0.750000 0.000000 0.000000
									CHANNELS 3 Zrotation Yrotation Xrotation
									End Site
									{
										OFFSET 0.000000 0.000000 0.000000
									}
								}
							}
						}
					}
				}
				JOINT RightShoulder
				{
					OFFSET 0.000000 0.000000 0.000000
					CHANNELS 3 Zrotation Yrotation Xrotation
					JOINT RightArm
					{
						OFFSET -2.700000 1.550000 -0.730000
						CHANNELS 3 Zrotation Yrotation Xrotation
						JOINT RightForeArm
						{
							OFFSET -5.450000 0.000000 0.000000
							CHANNELS 3 Zrotation Yrotation Xrotation
							JOINT RightHand
							{
								OFFSET -3.450000 0.000000 0.000000
								CHANNELS 3 Zrotation Yrotation Xrotation
								JOINT RightHandIndex1
								{
									OFFSET -0.750000 0.000000 0.000000
									CHANNELS 3 Zrotation Yrotation Xrotation
									End Site
									{
										OFFSET 0.000000 0.000000 0.000000
									}
								}
							}
						}
					}
				}
			}
		}
	}
}
MOTION
Frames: 8
Frame Time: 0.016667
0.445720 17.950390 -2.179400 2.084028 -3.895650 8.565486 -14.949050 12.663536 2.622189 7.254884 -1.148439 -11.142836 -3.563825 3.039281 1.883611 -1.819781 5.329670 3.629475 -0.357670 -1.189110 -0.552660 18.632201 -10.765824 3.157079 4.390961 0.090992 -5.934859 8.104298 -5.530857 4.010299 -0.469143 -4.455378 3.006846 -0.192410 2.102100 0.987820 -4.356671 -0.622011 -7.000372 15.019997 2.550850 3.302593 -8.457282 3.990789 6.051828 2.665957 -4.065703 -9.820058 -6.717339 3.344910 22.230442 -7.532000 -1.030440 -8.162710 -15.117551 -6.738501 3.822957 0.068762 3.971352 2.846050 4.608625 9.388840 -2.618209 -5.292898 1.803408 1.278490 1.122780 -0.426880 0.630000 9.821690 9.980335 6.520171 4.516364 6.618615 -2.956002 -11.865341 9.745036 -0.808244 1.381697 -0.930870 -1.231740 1.138230 0.895750 -0.056860 
0.522900 17.901070 -2.203420 1.851089 -5.265894 9.039868 -14.922012 12.642390 2.605817 8.704935 -1.152600 -11.494329 -3.364038 2.984814 1.501644 -1.787673 5.348214 3.617284 -0.307630 -1.104740 -0.584610 18.659183 -10.764150 3.112066 4.165415 0.250738 -6.388573 8.317526 -5.571822 4.768090 -0.467992 -4.475772 3.000353 -0.143800 2.122920 1.000710 -4.426434 -0.605569 -6.935645 15.907136 2.111367 2.929875 -9.397831 3.798851 6.106998 2.384505 -4.830625 -9.662050 -7.886399 4.401359 21.050663 -6.162240 -1.077020 -8.181540 -14.903304 -6.539094 3.617808 1.294856 3.302063 2.803749 5.067941 9.999561 -2.611563 -5.293725 1.875509 1.226860 1.133740 -0.436250 0.672520 10.177541 10.048340 6.439514 3.838044 6.157625 -3.044944 -12.672352 11.308017 -1.007658 1.347125 -1.001609 -1.192720 1.131600 0.870250 -0.014340 
0.598280 17.865890 -2.224990 1.298780 -5.934783 9.194987 -14.886672 12.653820 2.600123 10.700168 -1.071488 -11.807015 -3.634799 3.142459 1.673668 -1.735586 5.428510 3.569333 -0.305180 -1.081840 -0.621720 18.683815 -10.752072 3.080686 4.008663 0.411264 -6.677556 8.773128 -5.715918 5.811160 -0.461365 -4.490840 3.004147 -0.139150 2.116940 0.983940 -4.508003 -0.656418 -6.927309 17.320756 1.450641 2.955987 -10.360107 3.451508 5.961333 2.215763 -5.487921 -9.702614 -9.097991 5.221722 20.899567 -5.140630 -1.018290 -7.999050 -15.257131 -6.767147 3.583763 3.208120 3.429319 2.769275 5.415501 9.001667 -2.613152 -5.241041 1.922362 1.201220 1.118350 -0.441540 0.685010 10.816913 10.397838 6.575200 3.128965 4.881161 -3.342945 -13.477675 13.728237 -1.153770 1.315846 -1.026152 -1.171780 1.122950 0.863080 0.008560 
0.666630 17.832990 -2.246150 1.094445 -6.582123 9.276014 -14.883493 12.680061 2.574835 12.027940 -1.022421 -11.958479 -3.539998 3.240470 2.077671 -1.731104 5.488397 3.540132 -0.256860 -1.007740 -0.595770 18.681428 -10.731209 3.038645 3.330054 0.628677 -7.042610 9.755840 -5.922564 6.676795 -0.474250 -4.540267 2.981183 -0.089840 2.111100 0.972630 -4.508574 -0.736341 -6.877417 17.591334 0.733570 2.858208 -10.545263 2.815527 6.116295 1.968165 -6.021077 -9.442978 -9.978835 6.019609 20.042452 -4.887160 -0.710670 -8.631290 -15.806456 -6.744939 3.601202 4.373288 4.526700 2.871789 7.209199 6.570931 -2.482792 -5.169083 1.971867 1.186750 1.113660 -0.431380 0.704000 11.840302 10.548936 6.177792 1.221288 5.655993 -3.214102 -12.745388 13.654039 -1.115513 1.323939 -1.033892 -1.165390 1.143260 0.827990 0.018910 
0.718320 17.794740 -2.263070 0.907274 -7.520621 9.362903 -14.890433 12.763076 2.552544 13.049507 -0.966887 -12.240861 -3.296414 3.364530 2.999848 -1.766674 5.551029 3.508734 -0.249360 -0.992650 -0.564770 18.650266 -10.758090 3.000262 2.630491 1.053294 -7.941383 10.460910 -6.239936 8.509030 -0.476263 -4.571600 2.951025 -0.073430 2.114630 0.976290 -4.444116 -0.798349 -6.858225 17.059334 0.583877 3.125013 -10.275872 2.628336 6.005029 2.016310 -5.642892 -9.384795 -9.217759 5.997937 19.341416 -5.473740 -0.342150 -9.594350 -16.003376 -7.006915 3.520062 5.547893 4.605120 2.985358 7.520625 4.824431 -2.511667 -5.163024 1.945631 1.204950 1.122300 -0.416860 0.693540 11.959601 10.509359 6.142661 1.092237 5.798132 -3.162417 -12.833090 13.027264 -1.126347 1.318574 -1.016215 -1.181550 1.170590 0.829920 0.006490 
0.784520 17.779150 -2.275270 1.022030 -8.601994 9.209985 -14.901932 12.936337 2.538429 13.259203 -0.910626 -12.041684 -3.048677 3.483117 4.149462 -1.729586 5.530724 3.474374 -0.214950 -0.951190 -0.562820 18.597220 -10.772110 2.957344 1.007530 1.688461 -9.239127 11.952233 -6.820217 11.048478 -0.516212 -4.660338 2.874492 -0.082450 2.055700 1.006320 -4.339699 -1.030623 -6.862791 16.147636 0.384128 3.805765 -9.716008 2.457419 5.705001 1.882302 -5.667167 -9.657859 -9.396917 6.536057 19.495176 -4.384880 -0.103320 -10.940980 -15.803961 -7.421992 3.632601 6.003335 4.290543 3.004423 5.783750 4.608791 -2.634758 -5.094883 2.008501 1.232320 1.065160 -0.361050 0.696580 12.103424 10.929870 6.414145 1.033776 5.404970 -3.220180 -12.820306 12.276088 -1.019528 1.357073 -1.016469 -1.125900 1.121250 0.818750 0.017490 
0.849030 17.776730 -2.301690 0.715195 -9.692352 9.003796 -14.900801 13.075534 2.487468 13.638413 -0.839555 -11.995269 -2.734393 3.607300 5.714451 -1.637204 5.395542 3.454786 -0.054210 -0.703850 -0.502820 18.558742 -10.771402 2.968712 -0.660667 2.548294 -11.009588 14.449926 -7.720334 14.067990 -0.623958 -4.927837 2.750790 0.000940 1.917040 1.055670 -4.276907 -1.176167 -6.883243 15.772490 -0.180999 4.712696 -9.311049 1.908832 5.283666 1.841621 -5.458914 -9.580712 -9.095729 7.307364 19.483334 -4.411840 1.016260 -12.629440 -15.651445 -7.672697 3.428498 7.503550 2.912630 2.856510 2.181744 7.162154 -2.941078 -5.007275 2.119696 1.199460 1.012220 -0.243520 0.754550 12.049458 10.908887 6.325998 1.061422 5.669576 -2.982848 -12.467710 12.158399 -1.037312 1.401248 -1.110373 -0.983240 1.010150 0.677310 0.055620 
0.910760 17.781420 -2.339600 0.134741 -11.047529 8.969367 -14.896189 13.192689 2.424554 14.105822 -0.793513 -12.355922 -2.634801 3.877442 7.759050 -1.583231 5.403127 3.401990 -0.031590 -0.646020 -0.507610 18.526419 -10.722266 3.041674 -2.528256 3.762367 -13.548182 17.262043 -9.009860 17.826210 -0.707999 -5.359119 2.556945 0.006290 1.869770 1.090290 -4.229605 -1.325063 -6.941433 15.749187 -0.730754 5.805303 -9.068579 1.549168 4.810649 1.891358 -5.436578 -9.759497 -9.098541 8.006011 19.348355 -4.583400 1.849320 -12.971640 -15.365298 -7.802571 3.502660 6.888443 2.114591 2.668880 2.390057 8.354966 -2.916600 -5.024174 2.167232 1.168400 1.000450 -0.202690 0.754970 11.708374 11.011601 6.372663 1.958571 5.459717 -3.027342 -12.535973 13.629482 -1.094042 1.398288 -1.141328 -0.915550 0.949890 0.657770 0.075410 
